<?xml version="1.0" encoding="iso-8859-1"?>
<!-- Generator: Adobe Illustrator 19.0.0, SVG Export Plug-In . SVG Version: 6.00 Build 0)  -->
<svg version="1.1" id="Capa_1" xmlns="http://www.w3.org/2000/svg" xmlns:xlink="http://www.w3.org/1999/xlink" x="0px" y="0px"
	 viewBox="0 0 512 512" style="enable-background:new 0 0 512 512;" xml:space="preserve">
		<polygon points="83.869,101.005 176.087,101.005 176.087,8.787 		"/>
		<path d="M206.087,0v131.005H75.082V512h361.836V0H206.087z M249.064,85.226c1.796-4.619,4.416-8.759,7.863-12.426
			c3.444-3.665,7.623-6.634,12.536-8.907c4.91-2.271,10.519-3.409,16.824-3.409c7.55,0,14.094,1.558,19.63,4.673
			c5.534,3.117,9.658,7.241,12.371,12.371l-16.386,11.657c-0.733-1.906-1.704-3.481-2.914-4.729
			c-1.209-1.246-2.548-2.235-4.014-2.969c-1.467-0.732-2.987-1.246-4.564-1.539c-1.577-0.292-3.098-0.44-4.564-0.44
			c-3.079,0-5.737,0.605-7.973,1.815c-2.237,1.21-4.068,2.787-5.498,4.728c-1.43,1.943-2.493,4.143-3.189,6.598
			c-0.697,2.457-1.045,4.894-1.045,7.313c0,2.713,0.402,5.316,1.21,7.808c0.806,2.493,1.979,4.692,3.519,6.598
			c1.54,1.907,3.427,3.428,5.664,4.564c2.235,1.137,4.745,1.704,7.532,1.704c1.466,0,2.969-0.165,4.509-0.495
			c1.539-0.33,3.024-0.88,4.454-1.649c1.429-0.77,2.711-1.759,3.849-2.969c1.136-1.21,2.034-2.694,2.694-4.454l17.484,10.447
			c-1.174,2.859-2.952,5.426-5.333,7.698c-2.384,2.273-5.097,4.179-8.138,5.718c-3.043,1.54-6.307,2.713-9.787,3.519
			c-3.483,0.806-6.873,1.21-10.172,1.21c-5.792,0-11.09-1.154-15.891-3.464c-4.803-2.309-8.945-5.37-12.426-9.182
			c-3.483-3.811-6.178-8.138-8.083-12.976c-1.907-4.838-2.859-9.749-2.859-14.736C246.37,94.537,247.267,89.845,249.064,85.226z
			 M353.495,437.175h-194.99v-30h194.99V437.175z M353.495,370.45h-194.99v-30h194.99V370.45z M353.495,303.725h-194.99v-30h194.99
			V303.725z M353.495,237h-194.99v-30h194.99V237z M364.804,139H346.99l-29.031-78.077h22.653l15.285,51.135l15.065-51.135h22.544
			L364.804,139z"/>
</svg>
